# AST/ASF file generated using VICON BodyLanguage
# -----------------------------------------------
:version 1.10
:name VICON
:units
  mass 1.0
  length 0.45
  angle deg
:documentation
   .ast/.asf automatically generated from VICON data using
   VICON BodyBuilder and BodyLanguage model FoxedUp or BRILLIANT.MOD
:root
   order TX TY TZ RX RY RZ
   axis XYZ
   position 0 0 0  
   orientation 0 0 0 
:bonedata
  begin
     id 1 
     name lhipjoint
     direction 0.671379 -0.66392 0.329334 
     length 2.38647 
     axis 0 0 0  XYZ
  end
  begin
     id 2 
     name lfemur
     direction 0.34202 -0.939693 0  
     length 6.48179  
     axis 0 0 20  XYZ
    dof rx ry rz
    limits (-160.0 20.0)
           (-70.0 70.0)
           (-60.0 70.0)
  end
  begin
     id 3 
     name ltibia
     direction 0.34202 -0.939693 0   
     length 6.86524   
     axis 0 0 20   XYZ
    dof rx
    limits (-10.0 170.0)
  end
  begin
     id 4 
     name lfoot
     direction 0.204886 -0.562919 0.800715   
     length 1.73031   
     axis -90 7.62852e-016 20   XYZ
    dof rx rz
    limits (-45.0 90.0)
           (-70.0 20.0)
  end
  begin
     id 5 
     name ltoes
     direction 1.53548e-011 -4.21841e-011 1   
     length 0.828161   
     axis -90 7.62852e-016 20   XYZ
    dof rx
    limits (-90.0 20.0)
  end
  begin
     id 6 
     name rhipjoint
     direction -0.662732 -0.670855 0.332775   
     length 2.3618  
     axis 0 0 0  XYZ 
  end
  begin
     id 7 
     name rfemur
     direction -0.34202 -0.939693 0   
     length 6.3025   
     axis 0 0 -20   XYZ
    dof rx ry rz
    limits (-160.0 20.0)
           (-70.0 70.0)
           (-70.0 60.0)
  end
  begin
     id 8 
     name rtibia
     direction -0.34202 -0.939693 0   
     length 6.8732   
     axis 0 0 -20   XYZ
    dof rx
    limits (-10.0 170.0)
 end
 begin
     id 9 
     name rfoot
     direction -0.173856 -0.477665 0.861168   
     length 1.54784  
     axis -90 -7.62852e-016 -20   XYZ
    dof rx rz
    limits (-45.0 90.0)
           (-20.0 70.0)
  end
  begin
     id 10 
     name rtoes
     direction -1.53562e-011 -4.21802e-011 1   
     length 0.759618   
     axis -90 -7.62852e-016 -20   XYZ
    dof rx
    limits (-90.0 20.0)
  end
  begin
     id 11 
     name lowerback
     direction -0.0278357 0.999497 -0.0151789   
     length 1.97203   
     axis 0 0 0   XYZ
    dof rx ry rz
    limits (-20.0 45.0)
           (-30.0 30.0)
           (-30.0 30.0)
  end
  begin
     id 12 
     name upperback
     direction -0.00360622 0.997542 0.0699804   
     length 1.94709   
     axis 0 0 0   XYZ
    dof rx ry rz
    limits (-20.0 45.0)
           (-30.0 30.0)
           (-30.0 30.0)
  end
  begin
     id 13 
     name thorax
     direction 0.00907706 0.997048 0.0762461   
     length 1.95722   
     axis 0 0 0   XYZ
    dof rx ry rz
    limits (-20.0 45.0)
           (-30.0 30.0)
           (-30.0 30.0)
  end
  begin
     id 14 
     name lowerneck
     direction -0.0481835 0.99872 -0.0153927   
     length 1.63078   
     axis 0 0 0   XYZ
    dof rx ry rz
    limits (-20.0 45.0)
           (-30.0 30.0)
           (-30.0 30.0)
  end
  begin
     id 15 
     name upperneck
     direction 0.0859716 0.979226 -0.183644   
     length 1.62591   
     axis 0 0 0   XYZ
    dof rx ry rz
    limits (-20.0 45.0)
           (-30.0 30.0)
           (-30.0 30.0)
  end
  begin
     id 16
     name head
     direction 0.0324821 0.997629 -0.0606773  
     length 1.64811  
     axis 0 0 0   XYZ
    dof rx ry rz
    limits (-20.0 45.0)
           (-30.0 30.0)
           (-30.0 30.0)
  end
  begin
     id 17 
     name lclavicle
     direction 0.939609 0.311019 0.142835  
     length 3.70647  
     axis 0 0 0   XYZ
    dof ry rz
    limits (-20.0 10.0)
           (0.0 20.0)
  end
  begin
     id 18 
     name lhumerus
     direction 1 -4.48963e-011 -1.59838e-027   
     length 4.59207   
     axis 180 -30 -90   XYZ
    dof rx ry rz
    limits (-60.0 90.0)
           (-90.0 90.0)
           (-90.0 90.0)
  end
  begin
     id 19
     name lradius
     direction 1 -4.48957e-011 -1.3483e-026   
     length 2.98109   
     axis 180 -30 -90   XYZ
    dof rx
    limits (-10.0 170.0)
  end
  begin
     id 20
     name lwrist
     direction 1 -4.48954e-011 -3.11579e-026   
     length 1.49055   
     axis 2.00652e-014 90 90   XYZ
    dof ry
    limits (-180.0 0.0)
 end
  begin
     id 21 
     name lhand
     direction 1 -4.4911e-011 -6.23158e-026   
     length 0.480203   
     axis 3.97628e-014 90 90   XYZ
    dof rx rz
    limits (-90.0 90.0)
           (-45.0 45.0)
  end
  begin
     id 22 
     name lfingers
     direction 1 -4.48893e-011 -1.24632e-025   
     length 0.387152   
     axis 7.95256e-014 90 90   XYZ
    dof rx
    limits (0.0 90.0)
  end
  begin
     id 23
     name lthumb
     direction 0.707107 -6.35013e-011 0.707107   
     length 0.555875   
     axis -90 45 2.85299e-015   XYZ
    dof rx rz
    limits (-45.0 45.0)
           (-45.0 45.0)
  end
  begin
     id 24 
     name rclavicle
     direction -0.950396 0.30392 0.0661859   
     length 3.70894  
     axis 0 0 0   XYZ 
    dof ry rz
    limits (-10.0 20.0)
           (-20.0 0.0)
  end
  begin
     id 25 
     name rhumerus
     direction -1 -4.48957e-011 -2.96677e-027  
     length 4.76508   
     axis 180 30 90   XYZ
    dof rx ry rz
    limits (-90.0 60.0)
           (-90.0 90.0)
           (-90.0 90.0)
  end
  begin
     id 26 
     name rradius
     direction -1 -4.48974e-011 -1.44501e-026   
     length 2.78902   
     axis 180 30 90   XYZ
    dof rx
    limits (-10.0 170.0)
  end
  begin
     id 27 
     name rwrist
     direction -1 -4.48978e-011 -3.11579e-026   
     length 1.39451   
     axis 2.00652e-014 -90 -90   XYZ
    dof ry
    limits (-180.0 0.0)
  end
  begin
     id 28
     name rhand
     direction -1 -4.48956e-011 -6.23158e-026   
     length 0.721303   
     axis 3.97628e-014 -90 -90   XYZ
    dof rx rz
    limits (-90.0 90.0)
           (-45.0 45.0)
  end
  begin
     id 29
     name rfingers
     direction -1 -4.4899e-011 -1.24632e-025   
     length 0.581533   
     axis 7.95256e-014 -90 -90   XYZ
    dof rx
    limits (0.0 90.0)
  end
  begin
     id 30
     name rthumb
     direction -0.707107 -6.34911e-011 0.707107   
     length 0.834968   
     axis -90 -45 -2.85299e-015   XYZ
    dof rx rz
    limits (-45.0 45.0)
           (-45.0 45.0)
  end
:hierarchy
  begin
    root lhipjoint rhipjoint lowerback
    lhipjoint lfemur
    lfemur ltibia
    ltibia lfoot
    lfoot ltoes
    rhipjoint rfemur
    rfemur rtibia
    rtibia rfoot
    rfoot rtoes
    lowerback upperback
    upperback thorax
    thorax lowerneck lclavicle rclavicle
    lowerneck upperneck
    upperneck head
    lclavicle lhumerus
    lhumerus lradius
    lradius lwrist
    lwrist lhand lthumb
    lhand lfingers
    rclavicle rhumerus
    rhumerus rradius
    rradius rwrist
    rwrist rhand rthumb
    rhand rfingers
  end

#!OML:ASF I:\salsa\salsa 7_09\Patient 1\Session 1\dancerfemale.ASF
:FULLY-SPECIFIED
:DEGREES
213
root 18.4814 15.6258 2.50146 -215.926 -80.0701 220.907
lowerback 4.84338 -1.97217 4.57383
upperback -6.82631 -2.23183 1.81682
thorax -10.0952 -1.41521 -0.302073
lowerneck -5.96611 0.610626 -8.48406
upperneck 13.2558 -0.0122851 11.7337
head 4.90516 0.213966 5.08848
rclavicle -2.23881e-014 3.18055e-015
rhumerus -26.4575 5.40307 -104.829
rradius 95.2857
rwrist -13.5666
rhand -2.04767 50.8453
rfingers 7.12502
rthumb 23.6277 22.2771
lclavicle -2.23881e-014 3.18055e-015
lhumerus -47.568 25.152 62.7258
lradius 83.4009
lwrist -12.809
lhand -19.2341 24.6379
lfingers 7.12502
lthumb 7.07922 54.4996
rfemur -24.1478 -5.53044 31.3367
rtibia 30.8329
rfoot -20.1178 -3.59466
rtoes -20.8913
lfemur -27.3194 5.82139 -16.1012
ltibia 66.7239
lfoot -19.6495 4.38373
ltoes 13.4139
214
root 18.4046 15.6528 2.47425 -214.297 -79.6606 219.537
lowerback 4.88994 -1.84589 4.26849
upperback -6.94297 -2.07567 2.01965
thorax -10.2232 -1.31369 0.0691616
lowerneck -6.07863 0.711991 -8.24647
upperneck 13.0785 0.169524 11.4499
head 4.85451 0.304168 4.96363
rclavicle 4.79444e-014 -2.0773e-014
rhumerus -25.5661 6.58531 -105.382
rradius 95.2619
rwrist -12.7767
rhand -1.99961 51.1254
rfingers 7.12502
rthumb 23.6738 22.5632
lclavicle 4.79444e-014 -2.0773e-014
lhumerus -48.3287 25.4912 60.9063
lradius 83.4412
lwrist -13.0598
lhand -19.1508 24.3293
lfingers 7.12502
lthumb 7.15954 54.1882
rfemur -23.8937 -5.76574 31.5651
rtibia 30.4955
rfoot -20.3177 -2.75167
rtoes -21.3069
lfemur -29.0174 6.74752 -16.0251
ltibia 66.306
lfoot -21.2549 5.56723
ltoes 13.6152
215
root 18.3233 15.6702 2.44734 -211.164 -79.443 216.609
lowerback 4.8201 -1.69429 3.54082
upperback -6.98347 -1.93755 2.13159
thorax -10.1843 -1.18804 0.572526
lowerneck -6.3887 0.79172 -8.07164
upperneck 13.0191 0.321944 11.2337
head 4.87695 0.386899 4.87498
rclavicle 8.26944e-014 -1.07344e-014
rhumerus -24.7149 7.61213 -105.881
rradius 95.1107
rwrist -11.9989
rhand -2.0564 51.1261
rfingers 7.12502
rthumb 23.6193 22.5568
lclavicle 8.26944e-014 -1.07344e-014
lhumerus -49.0803 25.6804 59.2106
lradius 83.4987
lwrist -13.3528
lhand -18.8265 24.1925
lfingers 7.12502
lthumb 7.4726 54.0405
rfemur -23.6559 -6.09573 31.3753
rtibia 30.2338
rfoot -20.6522 -1.90509
rtoes -22.0758
lfemur -30.4089 7.10684 -16.3839
ltibia 65.0706
lfoot -23.0223 6.80964
ltoes 14.757
216
root 18.248 15.684 2.42183 -208.245 -79.2866 213.905
lowerback 4.78449 -1.54344 2.71806
upperback -7.02719 -1.8067 2.24018
thorax -10.1723 -1.05847 1.12883
lowerneck -6.68417 0.830493 -7.80549
upperneck 12.942 0.419556 10.9213
head 4.89874 0.440553 4.73685
rclavicle -4.5795e-014 -2.08724e-015
rhumerus -24.054 8.42701 -106.319
rradius 94.9326
rwrist -11.266
rhand -2.16606 51.1012
rfingers 7.12502
rthumb 23.5141 22.5184
lclavicle -4.5795e-014 -2.08724e-015
lhumerus -49.7829 25.6939 57.6528
lradius 83.5499
lwrist -13.647
lhand -18.3717 24.1569
lfingers 7.12502
lthumb 7.9116 53.9888
rfemur -23.4879 -6.25654 31.1318
rtibia 30.0201
rfoot -21.0142 -1.4096
rtoes -22.8707
lfemur -31.6541 6.92915 -16.7481
ltibia 63.2295
lfoot -24.4637 7.70627
ltoes 14.1339
217
root 18.1738 15.6964 2.39977 -205.752 -79.1532 211.611
lowerback 4.80403 -1.40447 1.91976
upperback -7.10444 -1.68742 2.353
thorax -10.2386 -0.936071 1.6825
lowerneck -6.87971 0.863345 -7.5046
upperneck 12.8619 0.501392 10.5666
head 4.90472 0.481716 4.57761
rclavicle -8.83349e-015 9.7156e-015
rhumerus -23.5987 9.1186 -106.695
rradius 94.6841
rwrist -10.6787
rhand -2.30678 51.1739
rfingers 7.12502
rthumb 23.3791 22.5739
lclavicle -8.83349e-015 9.7156e-015
lhumerus -50.4763 25.5912 56.1467
lradius 83.5647
lwrist -13.919
lhand -18.0239 24.1652
lfingers 7.12502
lthumb 8.24724 53.9843
rfemur -23.3417 -6.08527 30.8591
rtibia 29.9078
rfoot -21.3974 -1.26614
rtoes -23.5219
lfemur -32.7024 6.47208 -16.9978
ltibia 61.0714
lfoot -25.905 7.98657
ltoes 12.6532
218
root 18.0943 15.7128 2.38242 -203.331 -79.0395 209.287
lowerback 4.81962 -1.25164 1.12814
upperback -7.16443 -1.55175 2.42855
thorax -10.2911 -0.806209 2.19064
lowerneck -6.99751 0.877802 -7.31393
upperneck 12.8444 0.533022 10.3894
head 4.91923 0.499939 4.49161
rclavicle 2.62054e-014 4.16205e-015
rhumerus -23.2467 9.71942 -107.006
rradius 94.3687
rwrist -10.2187
rhand -2.64007 51.0922
rfingers 7.12502
rthumb 23.0594 22.4519
lclavicle 2.62054e-014 4.16205e-015
lhumerus -51.0757 25.2888 54.7475
lradius 83.5383
lwrist -14.0499
lhand -17.8447 24.3702
lfingers 7.12502
lthumb 8.42023 54.1823
rfemur -23.0102 -5.62683 30.4636
rtibia 29.7364
rfoot -21.6346 -1.47696
rtoes -23.6126
lfemur -33.4325 5.94837 -17.1886
ltibia 58.7609
lfoot -27.2637 7.56747
ltoes 11.9216
219
root 18.0146 15.7319 2.36973 -201.716 -78.8815 207.725
lowerback 4.918 -1.09732 0.425094
upperback -7.25034 -1.39972 2.58004
thorax -10.4308 -0.670558 2.73394
lowerneck -6.97036 0.893106 -7.20068
upperneck 12.8234 0.556464 10.2737
head 4.90754 0.509422 4.43607
rclavicle -2.09159e-014 6.08778e-015
rhumerus -23.0703 10.3284 -107.255
rradius 94.0747
rwrist -9.74926
rhand -3.26115 50.6655
rfingers 7.12502
rthumb 22.4633 21.9519
lclavicle -2.09159e-014 6.08778e-015
lhumerus -51.633 24.8889 53.5256
lradius 83.5057
lwrist -14.2233
lhand -17.5573 24.7153
lfingers 7.12502
lthumb 8.69753 54.5161
rfemur -22.5621 -4.8315 30.1492
rtibia 29.4978
rfoot -21.8039 -2.07588
rtoes -23.2559
lfemur -33.988 5.32011 -17.1366
ltibia 56.4935
lfoot -28.3077 6.17208
ltoes 10.2741
220
root 17.9339 15.7483 2.36345 -200.564 -78.6459 206.526
lowerback 5.19713 -0.915251 -0.29162
upperback -7.37874 -1.20267 2.85362
thorax -10.736 -0.502361 3.42031
lowerneck -6.85965 0.917398 -7.21014
upperneck 12.8577 0.607769 10.0916
head 4.8956 0.52081 4.38188
rclavicle 1.4561e-014 -9.93923e-017
rhumerus -23.1135 10.9835 -107.355
rradius 93.799
rwrist -9.24832
rhand -3.91089 50.0065
rfingers 7.12502
rthumb 21.8395 21.2189
lclavicle 1.4561e-014 -9.93923e-017
lhumerus -52.4002 24.4935 52.5226
lradius 83.6225
lwrist -14.5523
lhand -17.1503 25.3948
lfingers 7.12502
lthumb 9.09035 55.1789
rfemur -21.9933 -3.89797 29.8855
rtibia 29.2063
rfoot -21.8712 -2.79655
rtoes -23.5187
lfemur -34.2743 4.61425 -16.9255
ltibia 54.4074
lfoot -28.9421 4.54683
ltoes 7.37906
221
root 17.849 15.7614 2.36417 -199.205 -78.3165 204.972
lowerback 5.43343 -0.651555 -0.985141
upperback -7.41119 -0.89562 3.10617
thorax -10.9269 -0.281479 4.0516
lowerneck -6.7335 0.889508 -7.29908
upperneck 12.8525 0.609789 9.84616
head 4.87379 0.500797 4.31729
rclavicle 5.96354e-015 -2.10712e-014
rhumerus -23.0852 11.5108 -107.302
rradius 93.4792
rwrist -8.80999
rhand -4.46333 49.5099
rfingers 7.12502
rthumb 21.309 20.6614
lclavicle 5.96354e-015 -2.10712e-014
lhumerus -52.9073 24.2099 51.7415
lradius 83.6291
lwrist -14.887
lhand -16.688 25.9831
lfingers 7.12502
lthumb 9.53642 55.7473
rfemur -21.2839 -3.18878 29.5692
rtibia 28.9038
rfoot -21.8035 -3.27818
rtoes -24.3042
lfemur -34.2326 3.88611 -16.7242
ltibia 52.6242
lfoot -29.124 2.72677
ltoes 5.42831
